# xmcd
#
# Track frame offsets:
#	150
#	15561
#	32344
#	46282
#	65612
#	85287
#	105630
#	127258
#	144070
#	161809
#	183284
#	201883
#	220897
#	237022
#	255445
#
# Disc length: 3680
#
# Revision: 1
# Processed by: cddbd v1.5.1PL0 Copyright (c) Steve Scherf et al.
# Submitted via: dBpowerAMP V4.0
# Normalized: r0:TRMNUM
#
DISCID=c70e5e0f
DTITLE=Backstreet Boys  - Black And Blue
DYEAR=2003
DGENRE=Rap
TTITLE0=The Call
TTITLE1=Shape Of My Heart
TTITLE2=Get Another Boyfriend
TTITLE3=Shining Star
TTITLE4=I Promise You (With Everything I Am)
TTITLE5=The Answer To Our Life
TTITLE6=Everyone
TTITLE7=More Than That
TTITLE8=Time
TTITLE9=Not for Me
TTITLE10=Yes I Will
TTITLE11=It's True
TTITLE12=What Makes You Different (Makes You Beautiful)
TTITLE13=How Did I Fall in Love With You
TTITLE14=All I Have to Give [Acappella][*]
EXTD=
EXTT0=
EXTT1=
EXTT2=
EXTT3=
EXTT4=
EXTT5=
EXTT6=
EXTT7=
EXTT8=
EXTT9=
EXTT10=
EXTT11=
EXTT12=
EXTT13=
EXTT14=
PLAYORDER=
